<svg xmlns="http://www.w3.org/2000/svg" width="1600" height="950" viewBox="0 0 1600 950">
  <defs>
    <filter id="shadow" x="-20%" y="-20%" width="140%" height="140%"><feDropShadow dx="0" dy="12" stdDeviation="18" flood-color="#000" flood-opacity="0.35"/></filter>
    <linearGradient id="hero" x1="0" y1="0" x2="1" y2="1"><stop offset="0" stop-color="#163923"/><stop offset="1" stop-color="#10261a"/></linearGradient>
  </defs>
  <rect width="1600" height="950" fill="#0d1117"/>
  <rect x="0" y="0" width="250" height="950" fill="#10151c"/>
  <rect x="250" y="0" width="1350" height="72" fill="#161b22"/>
  <line x1="250" y1="72" x2="1600" y2="72" stroke="#30363d"/>
  <text x="32" y="44" fill="#f0f6fc" font-family="Inter,Segoe UI,Arial" font-size="25" font-weight="700">OpenFox</text>
  <text x="32" y="92" fill="#8b949e" font-family="Inter,Segoe UI,Arial" font-size="14">PROJECT</text>
  <rect x="18" y="112" width="214" height="44" rx="9" fill="#21262d"/>
  <circle cx="42" cy="134" r="7" fill="#58a6ff"/>
  <text x="60" y="140" fill="#f0f6fc" font-family="Inter,Segoe UI,Arial" font-size="16">devflow</text>
  <text x="32" y="206" fill="#8b949e" font-family="Inter,Segoe UI,Arial" font-size="13">SESSIONS</text>
  <text x="38" y="242" fill="#c9d1d9" font-family="Inter,Segoe UI,Arial" font-size="15">Handoff OpenFox</text>
  <text x="38" y="276" fill="#8b949e" font-family="Inter,Segoe UI,Arial" font-size="15">QA pipeline</text>
  <text x="38" y="310" fill="#8b949e" font-family="Inter,Segoe UI,Arial" font-size="15">Plugin spike</text>
  <text x="282" y="44" fill="#f0f6fc" font-family="Inter,Segoe UI,Arial" font-size="20" font-weight="700">Handoff OpenFox</text>
  <text x="1462" y="43" fill="#8b949e" font-family="Inter,Segoe UI,Arial" font-size="14">v2.0.110</text>

  <rect x="292" y="96" width="1268" height="804" rx="14" fill="#161b22" stroke="#30363d" filter="url(#shadow)"/>
  <text x="330" y="138" fill="#8b949e" font-family="Inter,Segoe UI,Arial" font-size="13" font-weight="600">PRESENTATION</text>
  <rect x="330" y="155" width="320" height="42" rx="9" fill="#0d1117" stroke="#30363d"/>
  <rect x="334" y="159" width="156" height="34" rx="7" fill="#238636"/>
  <text x="365" y="181" fill="#fff" font-family="Inter,Segoe UI,Arial" font-size="14" font-weight="700">Vue essentielle</text>
  <text x="520" y="181" fill="#8b949e" font-family="Inter,Segoe UI,Arial" font-size="14">Vue technique</text>
  <rect x="1264" y="160" width="42" height="24" rx="12" fill="#30363d"/>
  <circle cx="1277" cy="172" r="9" fill="#8b949e"/>
  <text x="1320" y="178" fill="#8b949e" font-family="Inter,Segoe UI,Arial" font-size="14">Afficher le raisonnement</text>

  <rect x="330" y="224" width="1192" height="180" rx="14" fill="url(#hero)" stroke="#2ea043"/>
  <circle cx="378" cy="272" r="24" fill="#238636"/>
  <path d="M367 272 l8 8 l15 -17" fill="none" stroke="#fff" stroke-width="4" stroke-linecap="round" stroke-linejoin="round"/>
  <text x="420" y="262" fill="#7ee787" font-family="Inter,Segoe UI,Arial" font-size="14" font-weight="700">TERMINÉ</text>
  <text x="420" y="297" fill="#f0f6fc" font-family="Inter,Segoe UI,Arial" font-size="27" font-weight="750">Correctif appliqué — PR #53 — Handoff OpenFox</text>
  <text x="420" y="330" fill="#c9d1d9" font-family="Inter,Segoe UI,Arial" font-size="16">Le contrat de handoff est validé et le flux DEV → QA reste idempotent.</text>
  <rect x="420" y="350" width="128" height="30" rx="15" fill="#1f6f37"/>
  <text x="444" y="370" fill="#d2f7dd" font-family="Inter,Segoe UI,Arial" font-size="13" font-weight="700">PR prête</text>

  <rect x="330" y="428" width="278" height="105" rx="12" fill="#0d1117" stroke="#30363d"/>
  <text x="354" y="458" fill="#8b949e" font-family="Inter,Segoe UI,Arial" font-size="13">TESTS</text>
  <text x="354" y="499" fill="#f0f6fc" font-family="Inter,Segoe UI,Arial" font-size="28" font-weight="700">207 / 207</text>
  <text x="513" y="499" fill="#3fb950" font-family="Inter,Segoe UI,Arial" font-size="15">passent</text>
  <rect x="626" y="428" width="278" height="105" rx="12" fill="#0d1117" stroke="#30363d"/>
  <text x="650" y="458" fill="#8b949e" font-family="Inter,Segoe UI,Arial" font-size="13">FICHIERS</text>
  <text x="650" y="499" fill="#f0f6fc" font-family="Inter,Segoe UI,Arial" font-size="28" font-weight="700">1</text>
  <text x="680" y="499" fill="#8b949e" font-family="Inter,Segoe UI,Arial" font-size="15">modifié</text>
  <rect x="922" y="428" width="278" height="105" rx="12" fill="#0d1117" stroke="#30363d"/>
  <text x="946" y="458" fill="#8b949e" font-family="Inter,Segoe UI,Arial" font-size="13">DURÉE</text>
  <text x="946" y="499" fill="#f0f6fc" font-family="Inter,Segoe UI,Arial" font-size="28" font-weight="700">0,59 s</text>
  <rect x="1218" y="428" width="304" height="105" rx="12" fill="#0d1117" stroke="#30363d"/>
  <text x="1242" y="458" fill="#8b949e" font-family="Inter,Segoe UI,Arial" font-size="13">COMMIT</text>
  <text x="1242" y="499" fill="#58a6ff" font-family="ui-monospace,SFMono-Regular,Consolas" font-size="18" font-weight="700">75fbe69</text>

  <text x="330" y="575" fill="#f0f6fc" font-family="Inter,Segoe UI,Arial" font-size="16" font-weight="700">Résumé</text>
  <rect x="330" y="592" width="1192" height="82" rx="10" fill="#0d1117" stroke="#30363d"/>
  <text x="354" y="623" fill="#c9d1d9" font-family="Inter,Segoe UI,Arial" font-size="15">Le résultat final est prioritaire. Les preuves restent disponibles sans concurrencer la conclusion.</text>
  <text x="354" y="650" fill="#8b949e" font-family="Inter,Segoe UI,Arial" font-size="14">Aucun changement de session, d’outil ou de protocole : présentation uniquement.</text>

  <text x="330" y="715" fill="#f0f6fc" font-family="Inter,Segoe UI,Arial" font-size="16" font-weight="700">Fichier modifié</text>
  <rect x="330" y="732" width="1192" height="54" rx="9" fill="#0d1117" stroke="#30363d"/>
  <text x="354" y="765" fill="#58a6ff" font-family="ui-monospace,SFMono-Regular,Consolas" font-size="14">devflow_lib/handoff.py</text>
  <text x="1318" y="765" fill="#3fb950" font-family="ui-monospace,SFMono-Regular,Consolas" font-size="14">+42</text>
  <text x="1370" y="765" fill="#f85149" font-family="ui-monospace,SFMono-Regular,Consolas" font-size="14">−3</text>
  <text x="1470" y="765" fill="#8b949e" font-family="Inter,Segoe UI,Arial" font-size="14">›</text>

  <rect x="330" y="804" width="378" height="54" rx="9" fill="#0d1117" stroke="#30363d"/>
  <text x="354" y="837" fill="#c9d1d9" font-family="Inter,Segoe UI,Arial" font-size="15">Tests</text><text x="673" y="837" fill="#8b949e" font-size="16">⌄</text>
  <rect x="720" y="804" width="378" height="54" rx="9" fill="#0d1117" stroke="#30363d"/>
  <text x="744" y="837" fill="#c9d1d9" font-family="Inter,Segoe UI,Arial" font-size="15">Commande</text><text x="1063" y="837" fill="#8b949e" font-size="16">⌄</text>
  <rect x="1110" y="804" width="412" height="54" rx="9" fill="#0d1117" stroke="#30363d"/>
  <text x="1134" y="837" fill="#c9d1d9" font-family="Inter,Segoe UI,Arial" font-size="15">Journal technique complet</text><text x="1487" y="837" fill="#8b949e" font-size="16">⌄</text>
  <text x="330" y="885" fill="#6e7681" font-family="Inter,Segoe UI,Arial" font-size="12">Maquette exploratoire — référence visuelle, non spécification figée</text>
</svg>